<svg id="Layer_1" data-name="Layer 1" xmlns="http://www.w3.org/2000/svg" viewBox="0 0 642.84 80" transform="scale(0.5, 0.5)"><defs><style>.cls-1{fill:#222a2e;}.cls-2{fill:#74ccd9;}.cls-3{fill:#8e9299;}</style></defs><title>density-open-source-logos</title><path class="cls-1" d="M153.28,35.44l-7.54.44c-0.25-4.67-3.68-7.54-8.91-7.54-5.67,0-8.66,3-8.66,7,0,4.67,3.61,5.73,10.34,7.29,9.78,2.37,16,5.17,16,13.4,0,9.6-7.6,13.77-16.82,13.77-10.22,0-17.82-5-18.13-14.15L127,55.2c0.31,5,4.74,8.16,10.59,8.16,5.36,0,9.28-2,9.28-6.85,0-4.67-4.05-5.92-11.15-7.6-8.35-2.06-15.2-4.42-15.2-13.34,0-7.35,5.3-13.65,16.14-13.65C146.24,21.92,153,26.91,153.28,35.44Z"/><path class="cls-1" d="M179.27,63v6.23a26.37,26.37,0,0,1-4.67.37c-6.29,0-10.66-3.12-10.59-10.34l0.06-16.08h-5.92v-6h5.92l0.06-10.84h7L171.1,37.19h8.1v6H171L171,57.88c0,4.18,2.43,5.48,5.3,5.48A16.27,16.27,0,0,0,179.27,63Z"/><path class="cls-1" d="M201.89,43.61c-5.48,0-8.91,3.49-8.91,8.16V69.16h-7v-32h6.79v4.49c1.18-2.49,4-4.86,9.1-4.86v6.79Z"/><path class="cls-1" d="M228.68,69.16V65c-1.18,2.37-4.05,4.8-9,4.8-7.23,0-11.72-5.17-11.72-12.9V37.19h7V55.82c0,4.61,2.24,7.42,6.48,7.42s6.92-3.61,6.92-7.79V37.19h7v32h-6.61Z"/><path class="cls-1" d="M274.11,48.72l-6.85.62c-0.5-4.18-3.61-6.73-7.85-6.73-5.17,0-8.91,3.8-8.91,10.59s3.8,10.53,8.91,10.53c4.36,0,7.29-2.43,7.91-6.36L274.17,58c-1.25,7.29-7,11.78-14.77,11.78-9.16,0-16-6.11-16-16.58s6.79-16.58,16-16.58C267.07,36.63,273.05,41.18,274.11,48.72Z"/><path class="cls-1" d="M298.6,63v6.23a26.37,26.37,0,0,1-4.67.37c-6.29,0-10.66-3.12-10.59-10.34l0.06-16.08h-5.92v-6h5.92l0.06-10.84h7l-0.06,10.84h8.1v6h-8.16l-0.06,14.64c0,4.18,2.43,5.48,5.3,5.48A16.27,16.27,0,0,0,298.6,63Z"/><path class="cls-1" d="M325.77,69.16V65c-1.18,2.37-4.05,4.8-9,4.8-7.23,0-11.72-5.17-11.72-12.9V37.19h7V55.82c0,4.61,2.24,7.42,6.48,7.42s6.92-3.61,6.92-7.79V37.19h7v32h-6.61Z"/><path class="cls-1" d="M358.36,43.61c-5.48,0-8.91,3.49-8.91,8.16V69.16h-7v-32h6.79v4.49c1.18-2.49,4-4.86,9.1-4.86v6.79Z"/><path class="cls-1" d="M368.65,55.82a8.07,8.07,0,0,0,8.54,7.91c4.05,0,6.73-1.68,7.6-4.55l7,0.37c-1.25,5.67-7,10.22-14.46,10.22-9.41,0-16.14-6.23-16.14-16.58s6.67-16.58,16-16.58,15,6,15,15.77v3.43H368.65Zm0.06-5.48H385.1c-0.19-4.61-2.8-7.73-8-7.73C372.45,42.61,369.08,45.35,368.71,50.34Z"/><path class="cls-2" d="M77.38,56.09H70.63V40a2.6,2.6,0,0,0-2.6-2.6H42.58V23.89h6.75a2.6,2.6,0,0,0,2.6-2.6V2.6A2.6,2.6,0,0,0,49.33,0H30.64A2.6,2.6,0,0,0,28,2.6v18.7a2.6,2.6,0,0,0,2.6,2.6h6.75v13.5H11.94A2.6,2.6,0,0,0,9.35,40v16.1H2.6A2.6,2.6,0,0,0,0,58.68v18.7A2.6,2.6,0,0,0,2.6,80h18.7a2.6,2.6,0,0,0,2.6-2.6V58.68a2.6,2.6,0,0,0-2.6-2.6H14.54V42.58H65.43v13.5H58.68a2.6,2.6,0,0,0-2.6,2.6v18.7a2.6,2.6,0,0,0,2.6,2.6h18.7a2.6,2.6,0,0,0,2.6-2.6V58.68A2.6,2.6,0,0,0,77.38,56.09ZM33.24,18.7V5.19h13.5V18.7H33.24ZM18.7,61.28v13.5H5.19V61.28H18.7Zm56.09,13.5H61.28V61.28h13.5v13.5Z"/><path class="cls-3" d="M444.33,59.37l-2.51.22a4.34,4.34,0,0,0-4.6-3.75c-3,0-5,2.13-5,5.63,0,3.67,2.21,5.63,5,5.63a4.3,4.3,0,0,0,4.58-3.61l2.53,0.22c-0.59,3.44-3.42,5.53-7,5.53-4.33,0-7.57-2.88-7.57-7.78s3.2-7.78,7.55-7.78C440.91,53.7,443.83,55.85,444.33,59.37Z"/><path class="cls-3" d="M452,60.75a2.64,2.64,0,0,0-2.9,2.65v5.65h-2.27V58.66h2.21v1.46a3,3,0,0,1,3-1.58v2.21Z"/><path class="cls-3" d="M462,62.59v6.46H459.7V68.12a4,4,0,0,1-2.82,1.13c-2.07,0-3.46-1.09-3.46-3,0-2.23,1.68-3,3.81-3.14l2.47-.14v-0.3c0-1.34-.57-2.17-1.84-2.17A1.69,1.69,0,0,0,456,62.23l-2.29-.08a3.85,3.85,0,0,1,4.13-3.67C460.51,58.48,462,59.94,462,62.59Zm-4.44,2.25c-1.07.06-1.84,0.4-1.84,1.34s0.65,1.17,1.56,1.17a2.16,2.16,0,0,0,2.45-2.29V64.7Z"/><path class="cls-3" d="M470.54,53.28v2a5.23,5.23,0,0,0-.65,0,1.83,1.83,0,0,0-1.94,2v1.5h2.55v2h-2.55v8.43h-2.27V60.63h-2v-2h2V57.22a3.71,3.71,0,0,1,4-4A5.41,5.41,0,0,1,470.54,53.28Z"/><path class="cls-3" d="M478.11,67.07v2a8.59,8.59,0,0,1-1.52.12c-2,0-3.46-1-3.44-3.36l0-5.23h-1.92v-2h1.92l0-3.52h2.29l0,3.52h2.63v2h-2.65l0,4.76a1.56,1.56,0,0,0,1.72,1.78A5.29,5.29,0,0,0,478.11,67.07Z"/><path class="cls-3" d="M482.06,64.72a2.62,2.62,0,0,0,2.77,2.57,2.31,2.31,0,0,0,2.47-1.48l2.29,0.12a4.63,4.63,0,0,1-4.7,3.32,5,5,0,0,1-5.25-5.39c0-3.38,2.17-5.39,5.18-5.39s4.86,2,4.86,5.12v1.11h-7.64Zm0-1.78h5.33a2.38,2.38,0,0,0-2.59-2.51A2.55,2.55,0,0,0,482.08,62.94Z"/><path class="cls-3" d="M500.11,69.05V67.61a3.87,3.87,0,0,1-3.42,1.64c-2.9,0-5-2.09-5-5.39s2.11-5.39,5-5.39a4,4,0,0,1,3.3,1.44v-6.6h2.27V69.05h-2.15ZM494,63.87c0,2.21,1.3,3.42,3.06,3.42A2.83,2.83,0,0,0,500,64.13V63.58A2.84,2.84,0,0,0,497,60.42C495.29,60.42,494,61.66,494,63.87Z"/><path class="cls-3" d="M512.52,59.92a4,4,0,0,1,3.3-1.44c2.9,0,5,2.07,5,5.39s-2.11,5.39-5,5.39a3.87,3.87,0,0,1-3.42-1.64v1.44h-2.15V53.32h2.27v6.6Zm0,3.67v0.55a2.83,2.83,0,0,0,2.94,3.16c1.76,0,3.06-1.22,3.06-3.42s-1.3-3.44-3.06-3.44A2.84,2.84,0,0,0,512.52,63.58Z"/><path class="cls-3" d="M523.24,74.22l2.55-5.89-4.11-9.66h2.53L527,65.77l2.8-7.11h2.53l-6.6,15.55h-2.49Z"/><path class="cls-1" d="M594.2,58.32h1.93a0.37,0.37,0,0,1,.37.37v1a4,4,0,0,1,3.33-1.62c2.73,0,4.39,1.77,4.39,4.71v6.32h-2a0.37,0.37,0,0,1-.37-0.37V63c0-1.77-.89-2.9-2.62-2.9a2.78,2.78,0,0,0-2.75,3.07v5.95h-1.95a0.37,0.37,0,0,1-.37-0.37V58.32Z"/><path class="cls-1" d="M606.51,66.84l1.78-.93a0.36,0.36,0,0,1,.47.11,3.06,3.06,0,0,0,2.6,1.31c1.3,0,2-.67,2-1.43s-1.25-1.06-2.62-1.34c-1.84-.39-3.74-1-3.74-3.22,0-1.71,1.62-3.29,4.17-3.27a4.92,4.92,0,0,1,4.35,2.1l-1.65.91a0.37,0.37,0,0,1-.46-0.09,2.83,2.83,0,0,0-2.24-1c-1.23,0-1.86.61-1.86,1.3s1,1,2.55,1.34c1.77,0.39,3.78,1,3.78,3.22,0,1.49-1.3,3.5-4.37,3.48A5.06,5.06,0,0,1,606.51,66.84Z"/><path class="cls-1" d="M618.32,53.8h2a0.37,0.37,0,0,1,.37.37v2.11h-2a0.37,0.37,0,0,1-.37-0.37V53.8Zm0,4.52h2a0.37,0.37,0,0,1,.37.37V69.14h-2a0.37,0.37,0,0,1-.37-0.37V58.32Z"/><polygon class="cls-1" points="627.63 54.49 627.6 54.51 627.63 54.51 627.63 54.49"/><path class="cls-1" d="M629.72,67h-0.3a2.17,2.17,0,0,1-.92-0.18,1.45,1.45,0,0,1-.81-1.11,7.18,7.18,0,0,1-.05-0.93l0-4.38h2.27V58.69a0.37,0.37,0,0,0-.37-0.37h-1.93V54.51h0l-2.12,1.16a0.37,0.37,0,0,0-.19.32v2.34h-1.84V60a0.37,0.37,0,0,0,.37.37h1.47v0.2l0,5c0,2.44,1.45,3.49,3.57,3.49h0.06a9.11,9.11,0,0,0,1-.05l0.5-.07V67.32A0.37,0.37,0,0,0,630,67Z"/><path class="cls-1" d="M636.24,68.57l-4.48-10.25H634a0.37,0.37,0,0,1,.34.22l3.06,7.28,2.89-7.28a0.37,0.37,0,0,1,.34-0.23h2.2L636.4,73.91a0.37,0.37,0,0,1-.34.23h-2.13Z"/><path class="cls-1" d="M586.1,67.3a3.31,3.31,0,0,1-3.48-2.77h8.59a0.37,0.37,0,0,0,.37-0.37v-0.4A5.63,5.63,0,0,0,586,58.1a5.57,5.57,0,0,0-5.57,5.67A5.77,5.77,0,0,0,590.82,67l-1.63-.91a0.36,0.36,0,0,0-.45.08A3.41,3.41,0,0,1,586.1,67.3ZM586,60.14a3,3,0,0,1,3.2,2.42h-6.49A3.36,3.36,0,0,1,586,60.14Z"/><path class="cls-1" d="M565.23,53.72a0.37,0.37,0,0,1,.37-0.37H570c5.12,0,8.27,3.41,8.27,7.88A7.82,7.82,0,0,1,570,69.12h-4.81V53.72Zm2.35,1.79V66.94h2.22c3.63,0,6-2.46,6-5.7s-2.18-5.72-6.13-5.72h-2.14Z"/><path class="cls-1" d="M547.7,64.43a5.79,5.79,0,0,0,2.8-5V55.64a0.37,0.37,0,0,1,.37-0.37h1.73a0.37,0.37,0,0,1,.37.37v3.83a5.79,5.79,0,0,0,2.8,5l3.41,2a0.37,0.37,0,0,1,.13.5l-0.86,1.5a0.37,0.37,0,0,1-.5.13L554.6,66.6a5.8,5.8,0,0,0-5.73,0l-3.35,1.93a0.37,0.37,0,0,1-.5-0.13l-0.86-1.5a0.37,0.37,0,0,1,.13-0.5Z"/></svg>